<svg id="Capa_1" data-name="Capa 1" xmlns="http://www.w3.org/2000/svg" viewBox="0 0 512 512"><defs><style>.cls-1{fill:#fd0;}.cls-1,.cls-2,.cls-3,.cls-4,.cls-5,.cls-6{fill-rule:evenodd;}.cls-2{fill:#39a935;}.cls-3{fill:#93c01f;}.cls-4{fill:#28295d;}.cls-5{fill:#3472b7;}.cls-6{fill:#fe6162;}</style></defs><path class="cls-1" d="M150.7,89.77A347.82,347.82,0,0,1,452.61,247.92a349,349,0,0,0,34.32-94.87A252.87,252.87,0,0,0,209.16,7.54,348.59,348.59,0,0,0,150.7,89.77Z"/><path class="cls-2" d="M486.93,153.05a349,349,0,0,1-34.32,94.87,349.09,349.09,0,0,1,42,91.79A252.6,252.6,0,0,0,486.93,153.05Z"/><path class="cls-3" d="M494.61,339.71a348.94,348.94,0,0,0-42-91.79,345.63,345.63,0,0,1-117,126.87c-1,.69-2.06,1.36-3.12,2-.9.6-1.82,1.17-2.76,1.73a345.61,345.61,0,0,1-165.07,51.77,348.6,348.6,0,0,0,65.09,77.25c100,10.39,200.72-39.78,250.19-134.22A254.16,254.16,0,0,0,494.61,339.71Z"/><path class="cls-4" d="M229.77,507.54a348.87,348.87,0,0,1-65.09-77.25,348.5,348.5,0,0,1-100.54-9.53,253.84,253.84,0,0,0,165.63,86.78Z"/><path class="cls-5" d="M164.68,430.29a345.72,345.72,0,0,1-51.43-165.73c-.06-.9-.11-1.79-.12-2.69q-.09-1.58-.12-3.15a345.79,345.79,0,0,1,37.69-169A348.56,348.56,0,0,0,51.34,107.5,253.47,253.47,0,0,0,32,138.67C-17.43,233.11-1.3,344.51,64.14,420.76A348.5,348.5,0,0,0,164.68,430.29Z"/><path class="cls-6" d="M51.34,107.5A348.56,348.56,0,0,1,150.7,89.77,348.59,348.59,0,0,1,209.16,7.54,252.52,252.52,0,0,0,51.34,107.5Z"/></svg>