<?xml version="1.0" encoding="utf-8"?>
<!-- Generator: Adobe Illustrator 28.0.0, SVG Export Plug-In . SVG Version: 6.00 Build 0)  -->
<svg version="1.1" id="Capa_1" xmlns="http://www.w3.org/2000/svg" xmlns:xlink="http://www.w3.org/1999/xlink" x="0px" y="0px"
	 viewBox="0 0 2293.22 1156.19" style="enable-background:new 0 0 2293.22 1156.19;" xml:space="preserve">
<style type="text/css">
	.st0{fill:#FFFFFF;}
	.st1{fill-rule:evenodd;clip-rule:evenodd;fill:#FFDD08;}
	.st2{fill-rule:evenodd;clip-rule:evenodd;fill:#3AAA35;}
	.st3{fill-rule:evenodd;clip-rule:evenodd;fill:#94C11F;}
	.st4{fill-rule:evenodd;clip-rule:evenodd;fill:#292B5E;}
	.st5{fill-rule:evenodd;clip-rule:evenodd;fill:#3572B8;}
	.st6{fill-rule:evenodd;clip-rule:evenodd;fill:#EC6266;}
</style>
<g>
	<polygon class="st0" points="193.48,987.4 193.48,1019.77 157.15,1019.77 157.15,987.4 143,987.4 143,1066.25 157.15,1066.25 
		157.15,1031.39 193.48,1031.39 193.48,1066.25 207.6,1066.25 207.6,987.4 	"/>
	<g>
		<path class="st0" d="M258.21,1066.26h-14.12v-78.71h28.02c3.91,0,7.61,0.38,11.09,1.1c3.46,0.72,6.51,1.93,9.16,3.59
			c2.63,1.66,4.72,3.91,6.24,6.75c1.5,2.81,2.28,6.3,2.28,10.4c0,5.76-1.61,10.45-4.77,14.07c-3.19,3.62-7.31,6.11-12.4,7.47
			l20.44,35.34h-16.34l-18.33-33.25h-11.28V1066.26z M258.21,1021.39h12.22c2.14,0,4.21-0.19,6.16-0.59
			c1.98-0.38,3.72-1.04,5.22-1.98c1.53-0.91,2.73-2.12,3.62-3.56c0.88-1.47,1.31-3.32,1.31-5.55c0-2.06-0.4-3.75-1.23-5.12
			c-0.86-1.37-1.98-2.46-3.4-3.3c-1.42-0.83-3.05-1.39-4.93-1.69c-1.85-0.29-3.8-0.43-5.87-0.43h-13.1V1021.39z"/>
		<path class="st0" d="M395.78,1066.26h-14.12v-78.71h28.02c3.91,0,7.61,0.38,11.09,1.1c3.46,0.72,6.51,1.93,9.16,3.59
			c2.63,1.66,4.72,3.91,6.24,6.75c1.5,2.81,2.28,6.3,2.28,10.4c0,5.76-1.61,10.45-4.77,14.07c-3.19,3.62-7.31,6.11-12.4,7.47
			l20.44,35.34h-16.34l-18.33-33.25h-11.28V1066.26z M395.78,1021.39H408c2.14,0,4.21-0.19,6.16-0.59c1.98-0.38,3.72-1.04,5.22-1.98
			c1.53-0.91,2.73-2.12,3.62-3.56c0.88-1.47,1.31-3.32,1.31-5.55c0-2.06-0.4-3.75-1.23-5.12c-0.86-1.37-1.98-2.46-3.4-3.3
			c-1.42-0.83-3.05-1.39-4.93-1.69c-1.85-0.29-3.8-0.43-5.87-0.43h-13.1V1021.39z"/>
		<polygon class="st0" points="482.15,1054.34 522.31,1054.34 522.31,1066.27 468.03,1066.27 468.03,987.55 520.55,987.55 
			520.55,999.15 482.15,999.15 482.15,1019.92 518.48,1019.92 518.48,1031.25 482.15,1031.25 		"/>
		<path class="st0" d="M593.12,1004.61c-1.66-2.14-3.86-3.91-6.59-5.22s-5.68-1.98-8.79-1.98c-3.54,0-6.54,0.91-9.03,2.71
			c-2.49,1.82-3.72,4.45-3.72,7.88c0,1.77,0.32,3.27,0.94,4.5c0.64,1.23,1.58,2.28,2.79,3.16c1.23,0.88,2.71,1.69,4.47,2.41
			c1.77,0.75,3.78,1.47,6,2.14c2.76,0.88,5.49,1.93,8.28,3.08c2.79,1.18,5.28,2.65,7.47,4.42s3.99,3.97,5.36,6.56
			c1.37,2.57,2.06,5.76,2.06,9.48c0,4.21-0.75,7.88-2.22,10.96s-3.48,5.65-6.03,7.66c-2.55,2.01-5.49,3.51-8.84,4.47
			c-3.32,0.99-6.91,1.47-10.72,1.47c-5.6,0-10.82-1.07-15.67-3.24c-4.85-2.14-8.81-5.14-11.84-8.98l9.7-8.98
			c2.36,3.13,5.2,5.39,8.55,6.78c3.32,1.37,6.51,2.06,9.56,2.06c3.72,0,6.94-0.86,9.62-2.6c2.71-1.71,4.05-4.31,4.05-7.85
			c0-3.94-1.5-6.89-4.47-8.84c-3-1.96-7.23-3.78-12.73-5.44c-2.55-0.78-5.06-1.71-7.5-2.79c-2.46-1.1-4.63-2.46-6.56-4.13
			c-1.9-1.66-3.46-3.72-4.61-6.19c-1.21-2.44-1.8-5.49-1.8-9.11c0-4.02,0.8-7.53,2.36-10.53c1.58-2.97,3.67-5.47,6.27-7.42
			c2.6-1.98,5.57-3.43,8.89-4.34c3.32-0.94,6.72-1.39,10.15-1.39c4.9,0,9.38,0.88,13.4,2.63c4.02,1.77,7.39,4.18,10.15,7.21
			L593.12,1004.61z"/>
		<polygon class="st0" points="648.71,1054.34 688.87,1054.34 688.87,1066.27 634.59,1066.27 634.59,987.55 687.1,987.55 
			687.1,999.15 648.71,999.15 648.71,1019.92 685.04,1019.92 685.04,1031.25 648.71,1031.25 		"/>
		<path class="st0" d="M723.02,1066.27h-14.87l33.54-78.88h13.1l33.38,78.88h-15.3l-7.34-18.25h-35.02L723.02,1066.27z
			 M734.78,1036.69h26.34l-13.1-33.11L734.78,1036.69z"/>
		<path class="st0" d="M826.88,1066.26h-14.12v-78.71h28.02c3.91,0,7.61,0.38,11.09,1.1c3.46,0.72,6.51,1.93,9.16,3.59
			c2.63,1.66,4.72,3.91,6.24,6.75c1.5,2.81,2.28,6.3,2.28,10.4c0,5.76-1.61,10.45-4.77,14.07c-3.19,3.62-7.31,6.11-12.4,7.47
			l20.44,35.34h-16.34l-18.33-33.25h-11.28V1066.26z M826.88,1021.39h12.22c2.14,0,4.21-0.19,6.16-0.59
			c1.98-0.38,3.72-1.04,5.22-1.98c1.53-0.91,2.73-2.12,3.62-3.56c0.88-1.47,1.34-3.32,1.34-5.55c0-2.06-0.43-3.75-1.26-5.12
			c-0.86-1.37-1.98-2.46-3.4-3.3c-1.42-0.83-3.05-1.39-4.93-1.69c-1.85-0.29-3.8-0.43-5.87-0.43h-13.1V1021.39z"/>
		<path class="st0" d="M967.4,1053.46c-3.72,4.61-8.04,8.25-12.94,10.88c-4.9,2.65-11.04,3.99-18.41,3.99
			c-6.19,0-11.82-1.02-16.91-3.03c-5.12-2.01-9.51-4.82-13.18-8.47c-3.67-3.62-6.51-7.98-8.52-13.1
			c-2.01-5.09-3.03-10.77-3.03-17.07c0-6.16,1.07-11.82,3.24-16.91c2.14-5.09,5.12-9.43,8.89-13.02c3.78-3.59,8.25-6.38,13.48-8.39
			c5.2-2.01,10.82-3.03,16.91-3.03c5.89,0,11.41,1.13,16.56,3.32c5.14,2.2,9.3,5.36,12.43,9.48l-11.04,8.68
			c-2.06-2.95-4.72-5.17-7.93-6.7c-3.24-1.5-6.7-2.28-10.31-2.28c-4.13,0-7.85,0.75-11.17,2.2c-3.35,1.47-6.19,3.51-8.55,6.11
			s-4.15,5.65-5.44,9.14c-1.29,3.48-1.9,7.29-1.9,11.39c0,4.05,0.67,7.82,2.04,11.36c1.39,3.51,3.24,6.62,5.6,9.24
			c2.36,2.65,5.14,4.74,8.39,6.27c3.24,1.5,6.72,2.28,10.45,2.28c4.13,0,7.88-0.8,11.25-2.44c3.4-1.61,6.35-4.18,8.92-7.72
			L967.4,1053.46z"/>
		<polygon class="st0" points="994.18,987.4 1008.3,987.4 1008.3,1019.76 1044.65,1019.76 1044.65,987.4 1058.77,987.4 
			1058.77,1066.25 1044.65,1066.25 1044.65,1031.39 1008.3,1031.39 1008.3,1066.25 994.18,1066.25 		"/>
		<path class="st0" d="M1199.86,1047.56l18.41,18.7h-18.7l-7.64-8.09c-2.76,3.24-6.03,5.73-9.86,7.5
			c-3.83,1.77-8.39,2.65-13.69,2.65c-3.43,0-6.75-0.48-9.99-1.39c-3.24-0.94-6.08-2.36-8.55-4.29c-2.44-1.9-4.42-4.31-5.87-7.21
			c-1.47-2.92-2.22-6.27-2.22-10.1c0-5.52,1.58-10.15,4.72-13.93c3.13-3.78,7.02-6.81,11.63-9.06c-2.55-2.97-4.5-5.79-5.81-8.49
			c-1.34-2.71-1.98-5.63-1.98-8.76c0-3.05,0.59-5.84,1.77-8.33c1.15-2.52,2.76-4.61,4.77-6.27c2.01-1.66,4.34-2.97,6.99-3.91
			c2.65-0.94,5.44-1.39,8.39-1.39s5.71,0.46,8.31,1.34c2.6,0.88,4.88,2.14,6.86,3.75c1.96,1.63,3.51,3.62,4.64,5.97
			c1.13,2.38,1.69,5.09,1.69,8.14c0,2.46-0.43,4.72-1.26,6.78c-0.83,2.06-1.98,3.94-3.46,5.63c-1.47,1.66-3.19,3.19-5.14,4.55
			c-1.96,1.39-4.07,2.68-6.32,3.86l13.37,13.69l8.25-14.44h15.46L1199.86,1047.56z M1165.73,1030.95
			c-6.56,2.76-9.86,7.45-9.86,14.12c0,3.46,1.15,6.24,3.46,8.39c2.3,2.17,5.28,3.24,8.92,3.24c3.43,0,6.38-0.7,8.81-2.06
			c2.46-1.37,4.53-3.19,6.19-5.44L1165.73,1030.95z M1180.6,1004.61c0-2.44-0.78-4.37-2.36-5.73c-1.58-1.37-3.54-2.06-5.87-2.06
			c-2.57,0-4.64,0.8-6.19,2.41c-1.58,1.63-2.36,3.67-2.36,6.11c0,3.54,2.06,7.5,6.19,11.92c3.91-1.77,6.64-3.75,8.23-5.95
			C1179.82,1009.09,1180.6,1006.87,1180.6,1004.61"/>
		<path class="st0" d="M1363.49,1053.46c-3.72,4.61-8.04,8.25-12.94,10.88c-4.9,2.65-11.04,3.99-18.41,3.99
			c-6.16,0-11.82-1.02-16.91-3.03c-5.12-2.01-9.51-4.82-13.18-8.47c-3.67-3.62-6.51-7.98-8.52-13.1
			c-2.01-5.09-3.03-10.77-3.03-17.07c0-6.16,1.07-11.82,3.24-16.91c2.14-5.09,5.12-9.43,8.89-13.02c3.78-3.59,8.25-6.38,13.48-8.39
			c5.2-2.01,10.82-3.03,16.91-3.03c5.89,0,11.41,1.13,16.56,3.32c5.14,2.2,9.3,5.36,12.43,9.48l-11.04,8.68
			c-2.06-2.95-4.72-5.17-7.93-6.7c-3.24-1.5-6.67-2.28-10.31-2.28c-4.13,0-7.85,0.75-11.17,2.2c-3.35,1.47-6.19,3.51-8.55,6.11
			c-2.36,2.6-4.15,5.65-5.44,9.14c-1.29,3.48-1.9,7.29-1.9,11.39c0,4.05,0.67,7.82,2.04,11.36c1.39,3.51,3.24,6.62,5.6,9.24
			c2.36,2.65,5.14,4.74,8.39,6.27c3.24,1.5,6.72,2.28,10.45,2.28c4.13,0,7.88-0.8,11.25-2.44c3.4-1.61,6.35-4.18,8.92-7.72
			L1363.49,1053.46z"/>
		<path class="st0" d="M1468.7,1026.68c0,6.08-1.1,11.68-3.24,16.77c-2.17,5.12-5.14,9.48-8.98,13.18
			c-3.83,3.67-8.33,6.54-13.53,8.6c-5.22,2.06-10.85,3.08-16.93,3.08c-5.97,0-11.55-1.02-16.69-3.08c-5.14-2.06-9.62-4.93-13.4-8.6
			c-3.78-3.7-6.75-8.06-8.9-13.18c-2.17-5.09-3.24-10.69-3.24-16.77c0-6.19,1.07-11.82,3.24-16.93c2.14-5.09,5.12-9.43,8.9-13.02
			c3.78-3.56,8.25-6.38,13.4-8.36c5.14-2.04,10.72-3.03,16.69-3.03c6.08,0,11.71,0.99,16.93,3.03c5.2,1.98,9.7,4.8,13.53,8.36
			c3.83,3.59,6.81,7.93,8.98,13.02C1467.6,1014.87,1468.7,1020.49,1468.7,1026.68 M1453.53,1026.68c0-4.13-0.64-7.93-1.9-11.41
			c-1.29-3.46-3.13-6.51-5.52-9.11c-2.41-2.6-5.3-4.64-8.68-6.11c-3.4-1.47-7.21-2.2-11.41-2.2c-4.13,0-7.85,0.72-11.17,2.2
			c-3.35,1.47-6.19,3.51-8.55,6.11s-4.18,5.65-5.44,9.11c-1.29,3.48-1.9,7.29-1.9,11.41s0.62,7.96,1.9,11.55
			c1.26,3.59,3.08,6.67,5.44,9.27c2.36,2.6,5.2,4.64,8.55,6.11c3.32,1.47,7.05,2.2,11.17,2.2c4.21,0,8.01-0.72,11.41-2.2
			c3.38-1.47,6.27-3.51,8.68-6.11c2.38-2.6,4.23-5.68,5.52-9.27C1452.89,1034.64,1453.53,1030.81,1453.53,1026.68"/>
		<polygon class="st0" points="1552.7,1047.13 1553,1047.13 1553,987.39 1566.69,987.39 1566.69,1066.26 1549.92,1066.26 
			1514.45,1006.81 1514.15,1006.81 1514.15,1066.26 1500.46,1066.26 1500.46,987.39 1517.53,987.39 		"/>
		<path class="st0" d="M1641.9,1004.61c-1.66-2.14-3.86-3.91-6.59-5.22s-5.68-1.98-8.79-1.98c-3.54,0-6.54,0.91-9.03,2.71
			c-2.49,1.82-3.72,4.45-3.72,7.88c0,1.77,0.32,3.27,0.94,4.5c0.64,1.23,1.58,2.28,2.79,3.16c1.23,0.88,2.71,1.69,4.47,2.41
			c1.77,0.75,3.78,1.47,6,2.14c2.76,0.88,5.49,1.93,8.28,3.08c2.79,1.18,5.28,2.65,7.47,4.42c2.2,1.77,3.99,3.97,5.36,6.56
			c1.37,2.57,2.06,5.76,2.06,9.48c0,4.21-0.75,7.88-2.22,10.96c-1.47,3.08-3.48,5.65-6.03,7.66s-5.49,3.51-8.84,4.47
			c-3.32,0.99-6.91,1.47-10.72,1.47c-5.6,0-10.82-1.07-15.67-3.24c-4.85-2.14-8.81-5.14-11.84-8.98l9.7-8.98
			c2.36,3.13,5.2,5.39,8.55,6.78c3.32,1.37,6.51,2.06,9.56,2.06c3.72,0,6.94-0.86,9.62-2.6c2.71-1.71,4.05-4.31,4.05-7.85
			c0-3.94-1.5-6.89-4.47-8.84c-3-1.96-7.23-3.78-12.73-5.44c-2.55-0.78-5.06-1.71-7.5-2.79c-2.46-1.1-4.64-2.46-6.56-4.13
			c-1.9-1.66-3.46-3.72-4.61-6.19c-1.21-2.44-1.8-5.49-1.8-9.11c0-4.02,0.8-7.53,2.36-10.53c1.58-2.97,3.67-5.47,6.27-7.42
			c2.6-1.98,5.57-3.43,8.89-4.34c3.32-0.94,6.72-1.39,10.15-1.39c4.9,0,9.38,0.88,13.4,2.63c4.02,1.77,7.39,4.18,10.15,7.21
			L1641.9,1004.61z"/>
		<path class="st0" d="M1714.7,1068.32c-5.09,0-9.67-0.8-13.69-2.41c-4.02-1.63-7.39-3.83-10.15-6.64
			c-2.73-2.79-4.82-6.11-6.24-9.91c-1.42-3.83-2.14-8.01-2.14-12.51v-49.43h14.15v48.41c0,2.63,0.29,5.14,0.94,7.5
			c0.64,2.33,1.66,4.45,3.11,6.32c1.42,1.85,3.27,3.32,5.57,4.39c2.3,1.1,5.12,1.63,8.47,1.63s6.16-0.54,8.47-1.63
			c2.3-1.07,4.18-2.55,5.65-4.39c1.47-1.88,2.52-3.99,3.16-6.32c0.64-2.36,0.96-4.88,0.96-7.5v-48.41h14.12v49.43
			c0,4.5-0.72,8.68-2.2,12.51c-1.47,3.8-3.59,7.13-6.32,9.91c-2.76,2.81-6.14,5.01-10.15,6.64
			C1724.37,1067.52,1719.79,1068.32,1714.7,1068.32"/>
		<polygon class="st0" points="1796.8,1054.34 1830.64,1054.34 1830.64,1066.27 1782.68,1066.27 1782.68,987.39 1796.8,987.39 		"/>
		<polygon class="st0" points="1878.9,1066.26 1864.78,1066.26 1864.78,999.17 1840.64,999.17 1840.64,987.55 1903.33,987.55 
			1903.33,999.17 1878.9,999.17 		"/>
		<rect x="1928.64" y="987.41" class="st0" width="14.12" height="78.85"/>
		<polygon class="st0" points="2031.48,1047.13 2031.77,1047.13 2031.77,987.39 2045.46,987.39 2045.46,1066.26 2028.69,1066.26 
			1993.22,1006.81 1992.92,1006.81 1992.92,1066.26 1979.23,1066.26 1979.23,987.39 1996.3,987.39 		"/>
		<path class="st0" d="M2139.77,1006.08c-2.25-2.55-5.12-4.55-8.6-6.03c-3.48-1.47-7.34-2.2-11.57-2.2c-4.21,0-7.98,0.72-11.31,2.2
			c-3.35,1.47-6.19,3.51-8.55,6.11c-2.36,2.6-4.18,5.65-5.44,9.19c-1.29,3.54-1.9,7.31-1.9,11.33s0.64,7.8,1.98,11.33
			c1.31,3.54,3.19,6.62,5.57,9.27c2.41,2.63,5.33,4.72,8.76,6.24c3.43,1.53,7.26,2.28,11.49,2.28c6.16,0,11.47-1.02,15.89-3.08
			v-19.42h-16.64v-11.63h30.76v39.57c-4.23,2.25-8.87,3.99-13.91,5.22c-5.06,1.23-10.53,1.85-16.42,1.85
			c-6.27,0-12.03-1.02-17.28-3.08s-9.73-4.93-13.45-8.6c-3.75-3.7-6.64-8.09-8.76-13.18c-2.12-5.09-3.16-10.69-3.16-16.77
			c0-6.19,1.07-11.82,3.24-16.93c2.14-5.09,5.09-9.43,8.81-13.02c3.72-3.56,8.17-6.38,13.32-8.39c5.14-2.01,10.77-3,16.85-3
			c6.38,0,12.14,0.96,17.31,2.95c5.14,1.96,9.43,4.5,12.86,7.64L2139.77,1006.08z"/>
		<path class="st0" d="M597.52,691.48l-4.3,4.04c-46.79,43.69-89.18,70.78-155.79,70.78c-101.35,0-177.76-82.58-177.76-192.07v-1.59
			c0-108.6,76.41-190.48,177.76-190.48c43.93,0,82.45,13.35,121.3,42.05c20.83,15.41,50.62,11.97,67.8-7.85l38.06-43.85l-4.17-3.99
			c-45.75-43.72-107.95-88.42-222.21-88.42c-167.23,0-293.32,126.46-293.32,294.13v1.59c0,79.4,29.3,153.1,82.51,207.43
			c53.7,54.87,127.16,85.09,206.85,85.09c117.88,0,182.61-50.83,230.34-100.55l4.09-4.25L597.52,691.48z"/>
		<path class="st0" d="M773.94,87.86h68.04c32.14,0,58.21,26.07,58.21,58.18v722.62H773.94V87.86z"/>
		<path class="st0" d="M1619.07,648.04v-370.3h72.63c33.52,0,60.71,27.19,60.71,60.74v269.89c0,90.38,45.2,142.18,124.56,142.18
			c77.14,0,131.15-54.01,131.15-144.39V277.74h133.34v590.92h-133.34v-99.37c-37.49,55.08-91.47,102.48-181.85,102.48
			C1695.11,871.76,1619.07,783.59,1619.07,648.04"/>
		<path class="st1" d="M1134.79,361.73c70.59-2.19,142.7,13.24,209.72,48.33c67.02,35.11,120.75,85.61,159.15,144.89
			c19.58-36.52,33.68-75.6,41.92-115.9c-27.29-61.37-74.69-114.28-138.79-147.86s-134.59-42.41-200.57-29.93
			C1177.78,291.01,1153.67,324.84,1134.79,361.73"/>
		<path class="st2" d="M1545.59,439.04c-8.26,40.3-22.34,79.4-41.94,115.9c22.55,34.83,39.78,72.65,51.33,112.15
			C1581.77,590.99,1576.93,509.45,1545.59,439.04"/>
		<path class="st3" d="M1554.97,667.1c-11.55-39.52-28.78-77.35-51.33-112.15c-32.72,61-80.84,114.78-142.91,155
			c-1.25,0.83-2.53,1.67-3.81,2.45c-1.09,0.73-2.24,1.43-3.36,2.11c-63.03,39.1-132.4,59.72-201.69,63.27
			c21.85,35.27,48.7,67.02,79.51,94.37c122.13,12.7,245.25-48.59,305.7-163.97C1544.13,694.73,1550.07,680.99,1554.97,667.1"/>
		<path class="st4" d="M1231.39,872.15c-30.81-27.32-57.66-59.1-79.53-94.37c-41.42,2.11-82.82-1.88-122.83-11.65
			c24.76,28.86,55.32,53.6,91.08,72.34C1155.85,857.18,1193.57,868.21,1231.39,872.15"/>
		<path class="st5" d="M1151.87,777.78c-36.65-59.15-59.23-128.15-62.85-202.5c-0.05-1.09-0.1-2.19-0.13-3.28
			c-0.08-1.28-0.13-2.55-0.16-3.86c-2.37-74.16,14.47-144.58,46.06-206.41c-41.45,1.3-82.35,8.65-121.4,21.66
			c-8.65,11.94-16.55,24.66-23.59,38.09c-60.43,115.38-40.72,251.51,39.23,344.65C1069.05,775.9,1110.45,779.89,1151.87,777.78"/>
		<path class="st6" d="M1013.39,383.39c39.05-13.01,79.95-20.36,121.4-21.66c18.87-36.89,42.99-70.72,71.43-100.47
			C1130.49,275.59,1060.71,318.01,1013.39,383.39"/>
	</g>
</g>
</svg>
